<!DOCTYPE svg PUBLIC "-//W3C//DTD SVG 1.1//EN" "http://www.w3.org/Graphics/SVG/1.1/DTD/svg11.dtd">
<!-- Uploaded to: SVG Repo, www.svgrepo.com, Transformed by: SVG Repo Mixer Tools -->
<svg fill="#ffffff" width="800px" height="800px" viewBox="-2 -2 24 24" xmlns="http://www.w3.org/2000/svg" preserveAspectRatio="xMinYMin" class="jam jam-task-list" stroke="#ffffff" stroke-width="0.00024000000000000003">
<g id="SVGRepo_bgCarrier" stroke-width="0"/>
<g id="SVGRepo_tracerCarrier" stroke-linecap="round" stroke-linejoin="round" stroke="#CCCCCC" stroke-width="0.24000000000000005"/>
<g id="SVGRepo_iconCarrier">
<path d="M6 0h8a6 6 0 0 1 6 6v8a6 6 0 0 1-6 6H6a6 6 0 0 1-6-6V6a6 6 0 0 1 6-6zm0 2a4 4 0 0 0-4 4v8a4 4 0 0 0 4 4h8a4 4 0 0 0 4-4V6a4 4 0 0 0-4-4H6zm6 7h3a1 1 0 0 1 0 2h-3a1 1 0 0 1 0-2zm-2 4h5a1 1 0 0 1 0 2h-5a1 1 0 0 1 0-2zm0-8h5a1 1 0 0 1 0 2h-5a1 1 0 1 1 0-2zm-4.172 5.243L7.95 8.12a1 1 0 1 1 1.414 1.415l-2.828 2.828a1 1 0 0 1-1.415 0L3.707 10.95a1 1 0 0 1 1.414-1.414l.707.707z"/>
</g>
</svg>